Coordinates
version=1
nRows=11
nColumns=63
inDegrees=yes

Units are S.I. units (second, meters, Newtons, ...)
If the header above contains a line with 'inDegrees', this indicates whether rotational values are in degrees (yes) or radians (no).

endheader
time	pelvis_tilt	pelvis_list	pelvis_rotation	pelvis_tx	pelvis_ty	pelvis_tz	hip_flexion_r	hip_adduction_r	hip_rotation_r	knee_angle_r	knee_angle_r_beta	ankle_angle_r	subtalar_angle_r	mtp_angle_r	hip_flexion_l	hip_adduction_l	hip_rotation_l	knee_angle_l	knee_angle_l_beta	ankle_angle_l	subtalar_angle_l	mtp_angle_l	L5_S1_Flex_Ext	L5_S1_Lat_Bending	L5_S1_axial_rotation	L4_L5_Flex_Ext	L4_L5_Lat_Bending	L4_L5_axial_rotation	L3_L4_Flex_Ext	L3_L4_Lat_Bending	L3_L4_axial_rotation	L2_L3_Flex_Ext	L2_L3_Lat_Bending	L2_L3_axial_rotation	L1_L2_Flex_Ext	L1_L2_Lat_Bending	L1_L2_axial_rotation	L1_T12_Flex_Ext	L1_T12_Lat_Bending	L1_T12_axial_rotation	Abs_r3	Abs_r2	Abs_r1	Abs_t1	Abs_t2	neck_flexion	neck_bending	neck_rotation	arm_flex_r	arm_add_r	arm_rot_r	elbow_flex_r	pro_sup_r	wrist_flex_r	wrist_dev_r	arm_flex_l	arm_add_l	arm_rot_l	elbow_flex_l	pro_sup_l	wrist_flex_l	wrist_dev_l
      2.00000000	     -1.55781938	     -0.68301448	     63.79868709	      0.22896351	      1.14963912	      0.41811824	      1.55929530	     -0.41838080	     14.67279709	      7.60916098	      0.13280491	     34.29510735	     16.84626375	      0.00000000	     -4.55958278	      2.24672021	     -5.42704099	      1.16861755	      0.02039622	     28.70616179	    -13.24536667	      0.00000000	      0.12730742	     -1.40889874	     -1.44054396	      0.23642261	     -1.87383533	     -1.53057796	      0.20915336	     -3.42559641	     -1.53057796	      0.14549965	     -3.42559641	     -1.26047597	      0.11821767	     -2.87302632	     -1.17044197	      0.07274346	     -2.18238415	     -1.08040797	      0.90934419	    -15.93774438	     -8.01187336	      0.00000000	      0.00000000	     27.64730987	     -2.29721743	    -37.90408495	     54.92774134	    -27.32984169	      6.93103678	    142.04057993	     89.15568507	     -2.11064692	     15.44907849	     15.86771321	    -14.65336405	    161.29965131	      0.78714315	     16.47572513	    -11.59834533	     -0.43610556
      2.02000000	     -1.33199275	     -0.65208541	     63.82641006	      0.22816625	      1.14950011	      0.41820939	      1.52615917	     -0.27182138	     14.21316060	      7.81552094	      0.13640657	     34.31098752	     17.09178867	      0.00000000	     -4.72951086	      2.10237321	     -4.92146280	      1.07072574	      0.01868769	     28.61732289	    -13.82615278	      0.00000000	      0.10475550	     -1.39923602	     -1.48835167	      0.19454143	     -1.86098390	     -1.58137365	      0.17210281	     -3.40210245	     -1.58137365	      0.11972506	     -3.40210245	     -1.30230771	      0.09727595	     -2.85332209	     -1.20928573	      0.05985729	     -2.16741659	     -1.11626375	      0.74825804	    -15.82843769	     -8.27776550	      0.00000000	      0.00000000	     27.37491410	     -2.16109127	    -38.17814377	     53.94243895	    -26.77122208	      7.60593376	    141.17001404	     89.19008594	     -3.02419558	     12.09752289	     15.47167807	    -14.88858863	    159.65774536	      0.72752445	     15.52217995	    -12.84799834	     -0.94235847
      2.04000000	     -1.16876941	     -0.54509913	     63.61481985	      0.22758590	      1.14946572	      0.41859063	      1.56303562	     -0.19497211	     14.22271436	      8.22778628	      0.14360196	     34.29180458	     17.18488085	      0.00000000	     -4.92686392	      2.06883230	     -4.90530837	      0.99858446	      0.01742859	     28.59704141	    -14.24794716	      0.00000000	      0.07748354	     -1.40293692	     -1.46936941	      0.14389467	     -1.86590611	     -1.56120500	      0.12729770	     -3.41110084	     -1.56120500	      0.08855593	     -3.41110084	     -1.28569824	      0.07195121	     -2.86086897	     -1.19386265	      0.04427409	     -2.17314929	     -1.10202706	      0.55345715	    -15.87030307	     -8.17219188	      0.00000000	      0.00000000	     27.12617996	     -1.50294622	    -37.99655441	     52.79156120	    -26.17534437	      8.29621096	    140.54421038	     89.21023429	     -4.06801581	      9.82951138	     15.05656542	    -15.06271501	    157.66830822	      0.68265766	     13.97518512	    -13.29639855	     -1.62332652
      2.06000000	     -1.10342373	     -0.38857874	     63.43246872	      0.22707954	      1.14943566	      0.41891128	      1.61788957	     -0.21625679	     14.33687883	      8.71981500	      0.15218948	     34.31215858	     17.22991424	      0.00000000	     -5.10044188	      2.14075800	     -5.12105763	      0.99383925	      0.01734577	     28.61206969	    -14.44414281	      0.00000000	      0.05086939	     -1.42545580	     -1.39810643	      0.09446955	     -1.89585621	     -1.48548808	      0.08357332	     -3.46585323	     -1.48548808	      0.05813863	     -3.46585323	     -1.22334312	      0.04723732	     -2.90678947	     -1.13596147	      0.02906677	     -2.20803103	     -1.04857982	      0.36335497	    -16.12504109	     -7.77584851	      0.00000000	      0.00000000	     26.87228668	     -0.38763441	    -37.66005207	     51.19951208	    -25.73361916	      8.45983950	    140.26298341	     89.20470764	     -4.62886375	      8.58502427	     14.66602201	    -15.14403249	    155.87598252	      0.67144255	     12.27265931	    -13.39323491	     -2.24211725
      2.08000000	     -1.07851532	     -0.27967426	     63.22393360	      0.22692333	      1.14924614	      0.41939555	      1.73593079	     -0.23254793	     14.51211548	      9.20849968	      0.16071864	     34.36587645	     17.28945094	      0.00000000	     -5.20780263	      2.20492303	     -5.48841786	      1.01929366	      0.01779003	     28.65421929	    -14.57583861	      0.00000000	      0.03195530	     -1.45134491	     -1.31210425	      0.05934419	     -1.93028873	     -1.39411077	      0.05249936	     -3.52880001	     -1.39411077	      0.03652171	     -3.52880001	     -1.14809122	      0.02967369	     -2.95958253	     -1.06608470	      0.01825926	     -2.24813326	     -0.98407819	      0.22825351	    -16.41790385	     -7.29753021	      0.00000000	      0.00000000	     26.63939927	      0.67867744	    -37.05678572	     49.31294027	    -25.32350533	      8.47035177	    140.17698972	     89.17945599	     -5.04640881	      7.39630382	     14.19660062	    -15.26259747	    153.56142128	      0.72601628	      9.78947796	    -13.21232031	     -3.21954578
      2.10000000	     -0.92353769	     -0.10303170	     63.35147142	      0.22633740	      1.14896145	      0.41939541	      1.64492603	     -0.17162124	     14.48491346	      9.62826079	      0.16804485	     34.43875309	     17.22452254	      0.00000000	     -5.43116611	      2.16368788	     -5.63404102	      1.08493166	      0.01893563	     28.81881453	    -14.64528877	      0.00000000	     -0.01649062	     -1.46141756	     -1.25200814	     -0.03062473	     -1.94368536	     -1.33025865	     -0.02709244	     -3.55329066	     -1.33025865	     -0.01884713	     -3.55329066	     -1.09550713	     -0.01531319	     -2.98012269	     -1.01725662	     -0.00942274	     -2.26373580	     -0.93900611	     -0.11779086	    -16.53184774	     -6.96329369	      0.00000000	      0.00000000	     26.21732800	      1.02240963	    -36.57911631	     47.26466786	    -24.99016183	      8.07375812	    140.44909591	     89.10810361	     -5.27065459	      7.07380817	     13.93043826	    -15.20057824	    152.55159426	      0.72939752	      8.65741585	    -13.19603910	     -3.44847143
      2.12000000	     -1.13251790	     -0.07599370	     63.16928609	      0.22616326	      1.14840340	      0.41942994	      1.88876943	     -0.39000368	     14.71137405	     10.01331164	      0.17476526	     34.47180397	     17.25199180	      0.00000000	     -5.41025941	      2.43539528	     -6.21132125	      1.07472975	      0.01875757	     28.84724949	    -14.44262250	      0.00000000	     -0.00244508	     -1.50063098	     -1.18303278	     -0.00454075	     -1.99583920	     -1.25697233	     -0.00401702	     -3.64863416	     -1.25697233	     -0.00279448	     -3.64863416	     -1.03515368	     -0.00227050	     -3.06008669	     -0.96121413	     -0.00139712	     -2.32447739	     -0.88727458	     -0.01746493	    -16.97543777	     -6.57967341	      0.00000000	      0.00000000	     25.97548823	      2.14073096	    -36.30654336	     45.30128646	    -24.74197405	      7.93685911	    140.50596629	     89.03660560	     -5.13980420	      5.74520550	     13.33138711	    -15.39407523	    148.72074444	      0.94180063	      4.51679422	    -11.83782283	     -5.23944080
      2.14000000	     -1.22665347	      0.02220705	     63.27727015	      0.22573658	      1.14791872	      0.41915271	      1.92961697	     -0.54488326	     14.65538421	     10.30134257	      0.17979235	     34.53336454	     17.22261490	      0.00000000	     -5.48943193	      2.60081321	     -6.53371093	      1.10365587	      0.01926243	     28.95634214	    -14.11601166	      0.00000000	     -0.00829767	     -1.52432755	     -1.13999513	     -0.01540960	     -2.02735564	     -1.21124482	     -0.01363224	     -3.70625000	     -1.21124482	     -0.00948341	     -3.70625000	     -0.99749574	     -0.00770522	     -3.10840873	     -0.92624604	     -0.00474129	     -2.36118337	     -0.85499635	     -0.05926942	    -17.24349808	     -6.34031090	      0.00000000	      0.00000000	     25.55658987	      2.80102656	    -36.11558858	     43.53150642	    -24.53084839	      7.82363722	    140.63386522	     88.92756236	     -5.13063808	      5.01650409	     12.99849156	    -15.42993227	    145.43242026	      1.18754820	      3.21476380	    -10.75124705	     -5.88278298
      2.16000000	     -1.33600463	      0.12363860	     63.40402751	      0.22540859	      1.14743903	      0.41881382	      1.97262250	     -0.70234188	     14.50713855	     10.56212600	      0.18434387	     34.72326407	     17.26965861	      0.00000000	     -5.55870669	      2.77579103	     -6.71603975	      1.13851960	      0.01987092	     29.01634963	    -13.90563287	      0.00000000	     -0.00473475	     -1.54248342	     -1.12008067	     -0.00879291	     -2.05150294	     -1.19008571	     -0.00777872	     -3.75039418	     -1.19008571	     -0.00541135	     -3.75039418	     -0.98007059	     -0.00439669	     -3.14543218	     -0.91006554	     -0.00270544	     -2.38930681	     -0.84006050	     -0.03381986	    -17.44888089	     -6.22955267	      0.00000000	      0.00000000	     25.06025948	      3.44352349	    -35.91125524	     42.07040383	    -24.39919447	      7.95326090	    140.74344867	     88.84898645	     -5.09693474	      4.85036763	     12.70433460	    -15.50358925	    141.31702658	      1.61436247	      2.58486005	     -9.66735479	     -6.38582991
      2.18000000	     -1.38436447	      0.26150168	     63.55536185	      0.22516306	      1.14713664	      0.41853295	      1.93153637	     -0.81254606	     14.24985483	     10.72704434	      0.18722224	     35.01140543	     17.40266422	      0.00000000	     -5.70756886	      2.89496681	     -6.77997608	      1.12734918	      0.01967595	     29.05018559	    -13.66539382	      0.00000000	     -0.00425098	     -1.55045246	     -1.13612748	     -0.00789450	     -2.06210178	     -1.20713545	     -0.00698394	     -3.76977012	     -1.20713545	     -0.00485845	     -3.76977012	     -0.99411155	     -0.00394746	     -3.16168266	     -0.92310358	     -0.00242901	     -2.40165087	     -0.85209561	     -0.03036433	    -17.53902835	     -6.31880022	      0.00000000	      0.00000000	     24.48478878	      4.14563842	    -35.41300699	     40.90548027	    -24.13745672	      8.27793150	    140.77445031	     88.83054810	     -4.84453002	      5.29926054	     12.50039990	    -15.68554626	    136.37904384	      2.37695755	      2.41268388	     -8.90696507	     -6.78164985
      2.20000000	     -1.39005869	      0.40498928	     63.75709705	      0.22502795	      1.14706868	      0.41821679	      1.82356542	     -0.86570535	     14.00381869	     10.78367685	      0.18821067	     35.32653835	     17.54663626	      0.00000000	     -5.88312577	      2.96038357	     -6.72556012	      1.08556089	      0.01894661	     29.03380687	    -13.51411700	      0.00000000	     -0.00486742	     -1.55380555	     -1.17570263	     -0.00903928	     -2.06656138	     -1.24918404	     -0.00799668	     -3.77792281	     -1.24918404	     -0.00556297	     -3.77792281	     -1.02873980	     -0.00451989	     -3.16852028	     -0.95525838	     -0.00278124	     -2.40684480	     -0.88177697	     -0.03476749	    -17.57695914	     -6.53890529	      0.00000000	      0.00000000	     23.86881573	      4.89065099	    -34.78567439	     39.89940360	    -23.68306729	      8.64717137	    140.58629183	     88.84903922	     -4.26216151	      5.96611380	     12.39481871	    -16.04295886	    131.09447858	      3.48885644	      2.26228518	     -8.25572326	     -7.12401483
